<?xml version="1.0" encoding="UTF-8" standalone="no"?>
<!--Created by Carveco -->
<svg xmlns="http://www.w3.org/2000/svg" height="325.000000mm" width="584.000000mm" viewBox="0 0 584.000000 325.000000">
<path d="M121.925000,289.000000 C121.925000,283.435731 126.435731,278.925000 132.000000,278.925000 C137.564269,278.925000 142.075000,283.435731 142.075000,289.000000 C142.075000,294.564269 137.564269,299.075000 132.000000,299.075000 C126.435731,299.075000 121.925000,294.564269 121.925000,289.000000
" style="fill:none;stroke:#000000;stroke-width:0.4545"/>
<path d="M25.925000,289.000000 C25.925000,283.435731 30.435731,278.925000 36.000000,278.925000 C41.564269,278.925000 46.075000,283.435731 46.075000,289.000000 C46.075000,294.564269 41.564269,299.075000 36.000000,299.075000 C30.435731,299.075000 25.925000,294.564269 25.925000,289.000000
" style="fill:none;stroke:#000000;stroke-width:0.4545"/>
<path d="M204.925000,185.000000 C204.925000,179.435731 209.435731,174.925000 215.000000,174.925000 C220.564269,174.925000 225.075000,179.435731 225.075000,185.000000 C225.075000,190.564269 220.564269,195.075000 215.000000,195.075000 C209.435731,195.075000 204.925000,190.564269 204.925000,185.000000
" style="fill:none;stroke:#000000;stroke-width:0.4545"/>
<path d="M108.925000,185.000000 C108.925000,179.435731 113.435731,174.925000 119.000000,174.925000 C124.564269,174.925000 129.075000,179.435731 129.075000,185.000000 C129.075000,190.564269 124.564269,195.075000 119.000000,195.075000 C113.435731,195.075000 108.925000,190.564269 108.925000,185.000000
" style="fill:none;stroke:#000000;stroke-width:0.4545"/>
<path d="M204.925000,237.000000 C204.925000,231.435731 209.435731,226.925000 215.000000,226.925000 C220.564269,226.925000 225.075000,231.435731 225.075000,237.000000 C225.075000,242.564269 220.564269,247.075000 215.000000,247.075000 C209.435731,247.075000 204.925000,242.564269 204.925000,237.000000
" style="fill:none;stroke:#000000;stroke-width:0.4545"/>
<path d="M108.925000,237.000000 C108.925000,231.435731 113.435731,226.925000 119.000000,226.925000 C124.564269,226.925000 129.075000,231.435731 129.075000,237.000000 C129.075000,242.564269 124.564269,247.075000 119.000000,247.075000 C113.435731,247.075000 108.925000,242.564269 108.925000,237.000000
" style="fill:none;stroke:#000000;stroke-width:0.4545"/>
<path d="M235.925000,289.000000 C235.925000,283.435731 240.435731,278.925000 246.000000,278.925000 C251.564269,278.925000 256.075000,283.435731 256.075000,289.000000 C256.075000,294.564269 251.564269,299.075000 246.000000,299.075000 C240.435731,299.075000 235.925000,294.564269 235.925000,289.000000
" style="fill:none;stroke:#000000;stroke-width:0.4545"/>
<path d="M331.925000,193.000000 C331.925000,187.435731 336.435731,182.925000 342.000000,182.925000 C347.564269,182.925000 352.075000,187.435731 352.075000,193.000000 C352.075000,198.564269 347.564269,203.075000 342.000000,203.075000 C336.435731,203.075000 331.925000,198.564269 331.925000,193.000000
" style="fill:none;stroke:#000000;stroke-width:0.4545"/>
<path d="M331.925000,289.000000 C331.925000,283.435731 336.435731,278.925000 342.000000,278.925000 C347.564269,278.925000 352.075000,283.435731 352.075000,289.000000 C352.075000,294.564269 347.564269,299.075000 342.000000,299.075000 C336.435731,299.075000 331.925000,294.564269 331.925000,289.000000
" style="fill:none;stroke:#000000;stroke-width:0.4545"/>
<path d="M555.075000,258.000000 C555.075000,263.564269 550.564269,268.075000 545.000000,268.075000 C539.435731,268.075000 534.925000,263.564269 534.925000,258.000000 C534.925000,252.435731 539.435731,247.925000 545.000000,247.925000 C550.564269,247.925000 555.075000,252.435731 555.075000,258.000000
" style="fill:none;stroke:#000000;stroke-width:0.4545"/>
<path d="M555.075000,66.000000 C555.075000,71.564269 550.564269,76.075000 545.000000,76.075000 C539.435731,76.075000 534.925000,71.564269 534.925000,66.000000 C534.925000,60.435731 539.435731,55.925000 545.000000,55.925000 C550.564269,55.925000 555.075000,60.435731 555.075000,66.000000
" style="fill:none;stroke:#000000;stroke-width:0.4545"/>
<path d="M555.075000,162.000000 C555.075000,167.564269 550.564269,172.075000 545.000000,172.075000 C539.435731,172.075000 534.925000,167.564269 534.925000,162.000000 C534.925000,156.435731 539.435731,151.925000 545.000000,151.925000 C550.564269,151.925000 555.075000,156.435731 555.075000,162.000000
" style="fill:none;stroke:#000000;stroke-width:0.4545"/>
<path d="M491.075000,258.000000 C491.075000,263.564269 486.564269,268.075000 481.000000,268.075000 C475.435731,268.075000 470.925000,263.564269 470.925000,258.000000 C470.925000,252.435731 475.435731,247.925000 481.000000,247.925000 C486.564269,247.925000 491.075000,252.435731 491.075000,258.000000
" style="fill:none;stroke:#000000;stroke-width:0.4545"/>
<path d="M491.075000,66.000000 C491.075000,71.564269 486.564269,76.075000 481.000000,76.075000 C475.435731,76.075000 470.925000,71.564269 470.925000,66.000000 C470.925000,60.435731 475.435731,55.925000 481.000000,55.925000 C486.564269,55.925000 491.075000,60.435731 491.075000,66.000000
" style="fill:none;stroke:#000000;stroke-width:0.4545"/>
<path d="M491.075000,162.000000 C491.075000,167.564269 486.564269,172.075000 481.000000,172.075000 C475.435731,172.075000 470.925000,167.564269 470.925000,162.000000 C470.925000,156.435731 475.435731,151.925000 481.000000,151.925000 C486.564269,151.925000 491.075000,156.435731 491.075000,162.000000
" style="fill:none;stroke:#000000;stroke-width:0.4545"/>
<path d="M383.925000,66.000000 C383.925000,60.435731 388.435731,55.925000 394.000000,55.925000 C399.564269,55.925000 404.075000,60.435731 404.075000,66.000000 C404.075000,71.564269 399.564269,76.075000 394.000000,76.075000 C388.435731,76.075000 383.925000,71.564269 383.925000,66.000000
" style="fill:none;stroke:#000000;stroke-width:0.4545"/>
<path d="M383.925000,258.000000 C383.925000,252.435731 388.435731,247.925000 394.000000,247.925000 C399.564269,247.925000 404.075000,252.435731 404.075000,258.000000 C404.075000,263.564269 399.564269,268.075000 394.000000,268.075000 C388.435731,268.075000 383.925000,263.564269 383.925000,258.000000
" style="fill:none;stroke:#000000;stroke-width:0.4545"/>
<path d="M383.925000,162.000000 C383.925000,156.435731 388.435731,151.925000 394.000000,151.925000 C399.564269,151.925000 404.075000,156.435731 404.075000,162.000000 C404.075000,167.564269 399.564269,172.075000 394.000000,172.075000 C388.435731,172.075000 383.925000,167.564269 383.925000,162.000000
" style="fill:none;stroke:#000000;stroke-width:0.4545"/>
<path d="M523.075000,258.000000 C523.075000,263.564269 518.564269,268.075000 513.000000,268.075000 C507.435731,268.075000 502.925000,263.564269 502.925000,258.000000 C502.925000,252.435731 507.435731,247.925000 513.000000,247.925000 C518.564269,247.925000 523.075000,252.435731 523.075000,258.000000
" style="fill:none;stroke:#000000;stroke-width:0.4545"/>
<path d="M523.075000,66.000000 C523.075000,71.564269 518.564269,76.075000 513.000000,76.075000 C507.435731,76.075000 502.925000,71.564269 502.925000,66.000000 C502.925000,60.435731 507.435731,55.925000 513.000000,55.925000 C518.564269,55.925000 523.075000,60.435731 523.075000,66.000000
" style="fill:none;stroke:#000000;stroke-width:0.4545"/>
<path d="M523.075000,162.000000 C523.075000,167.564269 518.564269,172.075000 513.000000,172.075000 C507.435731,172.075000 502.925000,167.564269 502.925000,162.000000 C502.925000,156.435731 507.435731,151.925000 513.000000,151.925000 C518.564269,151.925000 523.075000,156.435731 523.075000,162.000000
" style="fill:none;stroke:#000000;stroke-width:0.4545"/>
<path d="M57.000000,58.000000 C57.000000,52.477153 61.477153,48.000000 67.000000,48.000000 C72.522847,48.000000 77.000000,52.477153 77.000000,58.000000 C77.000000,63.522847 72.522847,68.000000 67.000000,68.000000 C61.477153,68.000000 57.000000,63.522847 57.000000,58.000000
" style="fill:none;stroke:#000000;stroke-width:0.4545"/>
<path d="M153.000000,58.000000 C153.000000,52.477153 157.477153,48.000000 163.000000,48.000000 C168.522847,48.000000 173.000000,52.477153 173.000000,58.000000 C173.000000,63.522847 168.522847,68.000000 163.000000,68.000000 C157.477153,68.000000 153.000000,63.522847 153.000000,58.000000
" style="fill:none;stroke:#000000;stroke-width:0.4545"/>
<path d="M249.000000,58.000000 C249.000000,52.477153 253.477153,48.000000 259.000000,48.000000 C264.522847,48.000000 269.000000,52.477153 269.000000,58.000000 C269.000000,63.522847 264.522847,68.000000 259.000000,68.000000 C253.477153,68.000000 249.000000,63.522847 249.000000,58.000000
" style="fill:none;stroke:#000000;stroke-width:0.4545"/>
<path d="M57.000000,110.000000 C57.000000,104.477153 61.477153,100.000000 67.000000,100.000000 C72.522847,100.000000 77.000000,104.477153 77.000000,110.000000 C77.000000,115.522847 72.522847,120.000000 67.000000,120.000000 C61.477153,120.000000 57.000000,115.522847 57.000000,110.000000
" style="fill:none;stroke:#000000;stroke-width:0.4545"/>
<path d="M153.000000,110.000000 C153.000000,104.477153 157.477153,100.000000 163.000000,100.000000 C168.522847,100.000000 173.000000,104.477153 173.000000,110.000000 C173.000000,115.522847 168.522847,120.000000 163.000000,120.000000 C157.477153,120.000000 153.000000,115.522847 153.000000,110.000000
" style="fill:none;stroke:#000000;stroke-width:0.4545"/>
<path d="M249.000000,110.000000 C249.000000,104.477153 253.477153,100.000000 259.000000,100.000000 C264.522847,100.000000 269.000000,104.477153 269.000000,110.000000 C269.000000,115.522847 264.522847,120.000000 259.000000,120.000000 C253.477153,120.000000 249.000000,115.522847 249.000000,110.000000
" style="fill:none;stroke:#000000;stroke-width:0.4545"/>
<path d="M26.000000,193.000000 C26.000000,187.477153 30.477153,183.000000 36.000000,183.000000 C41.522847,183.000000 46.000000,187.477153 46.000000,193.000000 C46.000000,198.522847 41.522847,203.000000 36.000000,203.000000 C30.477153,203.000000 26.000000,198.522847 26.000000,193.000000
" style="fill:none;stroke:#000000;stroke-width:0.4545"/>
</svg>
